<svg width="100" height="100" viewBox="0 0 100 100" fill="none" xmlns="http://www.w3.org/2000/svg">
<rect width="100" height="100" fill="white"/>
<path d="M89 57.5253C89 47.1057 81.5099 38.487 71.4371 36.1715C72.0828 34.1133 72.4702 31.9265 72.4702 29.8683C72.4702 17.7764 62.3973 8 50 8C37.6026 8 27.5298 17.7764 27.5298 29.8683C27.5298 32.0551 27.9172 34.1133 28.5629 36.1715C18.6192 38.3583 11 47.1057 11 57.5253C11 69.6171 21.0728 79.3936 33.4702 79.3936C37.2152 79.3936 40.702 78.4931 43.9305 76.8208C41.3477 80.8086 37.6026 83.8959 33.2119 85.3109C31.6623 85.8254 30.6291 87.4977 30.8874 89.17C31.1457 90.8423 32.5662 92 34.245 92H65.755C67.4338 92 68.8543 90.8423 69.1126 89.17C69.3709 87.4977 68.4669 85.9541 66.7881 85.3109C62.2682 83.7672 58.6523 80.6799 56.0695 76.8208C59.298 78.4931 62.7848 79.3936 66.5298 79.3936C78.9271 79.3936 89 69.6171 89 57.5253Z" fill="black"/>
</svg>
