<svg width="100" height="100" viewBox="0 0 100 100" fill="none" xmlns="http://www.w3.org/2000/svg">
<rect width="100" height="100" fill="white"/>
<path fill-rule="evenodd" clip-rule="evenodd" d="M53.6063 9.39176C52.9938 7.94218 51.5738 7 50 7C48.4262 7 47.0062 7.94218 46.3937 9.39176C39.335 26.0098 26.0098 39.335 9.39176 46.3937C7.94218 47.0062 7 48.4262 7 50C7 51.5738 7.94218 52.9938 9.39176 53.6063C26.0098 60.665 39.335 73.9902 46.3937 90.6082C47.0062 92.0578 48.4262 93 50 93C51.5738 93 52.9938 92.0578 53.6063 90.6082C60.665 73.9902 73.9902 60.665 90.6082 53.6063C92.0578 52.9938 93 51.5738 93 50C93 48.4262 92.0578 47.0062 90.6082 46.3937C73.9902 39.335 60.665 26.0098 53.6063 9.39176Z" fill="#E63946"/>
</svg>
