<svg width="100" height="100" viewBox="0 0 100 100" fill="none" xmlns="http://www.w3.org/2000/svg">
<path d="M67.0288 31.7837C62.3883 27.4387 56.3662 25.0569 49.9774 25.0625C38.4798 25.0726 28.5537 32.9561 25.8131 43.8918C25.6136 44.6879 24.9044 45.25 24.0837 45.25H15.5778C14.4648 45.25 13.6193 44.2396 13.8252 43.1458C17.0369 26.0903 32.0113 13.1875 50 13.1875C59.8634 13.1875 68.8205 17.0671 75.4296 23.3829L80.731 18.0815C82.9752 15.8373 86.8125 17.4267 86.8125 20.6006V40.5C86.8125 42.4675 85.2175 44.0625 83.25 44.0625H63.3506C60.1767 44.0625 58.5873 40.2252 60.8315 37.9809L67.0288 31.7837V31.7837ZM16.75 55.9375H36.6494C39.8233 55.9375 41.4127 59.7748 39.1685 62.0191L32.9712 68.2164C37.6117 72.5616 43.6343 74.9434 50.0232 74.9376C61.5149 74.9273 71.4449 67.0491 74.1869 56.1085C74.3864 55.3124 75.0956 54.7503 75.9163 54.7503H84.4224C85.5353 54.7503 86.3808 55.7607 86.175 56.8545C82.9631 73.9097 67.9887 86.8125 50 86.8125C40.1366 86.8125 31.1795 82.9329 24.5704 76.6171L19.269 81.9185C17.0248 84.1627 13.1875 82.5733 13.1875 79.3994V59.5C13.1875 57.5325 14.7825 55.9375 16.75 55.9375Z" fill="white"/>
</svg>
