<svg width="100" height="100" viewBox="0 0 100 100" fill="none" xmlns="http://www.w3.org/2000/svg">
<rect width="100" height="100" fill="white"/>
<path d="M86.7238 45.3615C79.2418 22.3108 49.5551 7 49.5551 7C49.5551 7 20.5065 22.3108 13.0245 45.3615C9.20449 59.1382 12.6695 67.5412 16.115 72.0743C20.2541 77.52 27.0259 80.7714 34.2249 80.7714C37.7176 80.7714 41.0716 79.6755 44.0178 77.9694L42.2867 90.0732C42.1813 90.8084 42.4005 91.5519 42.8887 92.115C43.377 92.6782 44.0844 93 44.8279 93H55.5613C56.3047 93 57.0094 92.6782 57.4976 92.1178C57.9831 91.5546 58.2023 90.8084 58.0996 90.076L56.4518 78.5603C59.2981 79.9252 62.4413 80.7741 65.5234 80.7741C72.7252 80.7741 79.4942 77.5228 83.6333 72.077C87.0789 67.5412 90.5438 59.1382 86.7238 45.3615Z" fill="black"/>
</svg>
